<svg width="78" height="78" viewBox="0 0 78 78" fill="none" xmlns="http://www.w3.org/2000/svg">
<path fill-rule="evenodd" clip-rule="evenodd" d="M76.9434 0L0 0.0948181L0.0948038 77.0382L77.0382 76.9434L76.9434 0ZM15.6473 52.2079C13.6904 50.2596 13.6904 47.1008 15.6473 45.1525L45.4655 15.4658C47.4224 13.5175 50.5952 13.5175 52.5522 15.4658L64.5883 27.4489C66.5452 29.3972 66.5452 32.556 64.5883 34.5043L41.9797 57.0132H58.5C59.3284 57.0132 60 57.6819 60 58.5066C60 59.3314 59.3284 60 58.5 60H13.5C12.6716 60 12 59.3314 12 58.5066C12 57.6819 12.6716 57.0132 13.5 57.0132H20.474L15.6473 52.2079ZM36.9596 56.6187L26.5 56.8104L18 48.8457L24.9029 41.9732L38.2864 55.2977L36.9596 56.6187ZM33.5 33.414L26.9745 39.9108L40.358 53.2352L46.8835 46.7385L46.8639 46.719C46.9868 46.6224 47.1054 46.5176 47.2189 46.4046L59.2272 34.4492C60.7927 32.8906 60.7927 30.3635 59.2272 28.8049L51.5101 21.1219C49.9446 19.5632 47.4063 19.5632 45.8408 21.1219L33.8325 33.0772C33.719 33.1902 33.6138 33.3083 33.5167 33.4307L33.5 33.414Z" fill="white"/>
</svg>
