<svg width="78" height="78" viewBox="0 0 78 78" fill="none" xmlns="http://www.w3.org/2000/svg">
<path fill-rule="evenodd" clip-rule="evenodd" d="M0 0.0948181L76.9434 1.43741e-05L77.0382 76.9434L0.0948037 77.0382L0 0.0948181ZM54 25H24C22.8954 25 22 25.8954 22 27C22 28.1046 22.8954 29 24 29H54C55.1046 29 56 28.1046 56 27C56 25.8954 55.1046 25 54 25ZM24 22C21.2386 22 19 24.2386 19 27C19 29.7614 21.2386 32 24 32H54C56.7614 32 59 29.7614 59 27C59 24.2386 56.7614 22 54 22H45.9621C45.7068 18.6438 42.9027 16 39.4811 16C36.0594 16 33.2553 18.6438 33 22H24ZM36.0165 22H42.9456C42.703 20.3039 41.2443 19 39.4811 19C37.7178 19 36.2591 20.3039 36.0165 22ZM24.5 33C23.6716 33 23 33.6716 23 34.5V41V45.5V55C23 58.3137 25.6863 61 29 61H49C52.3137 61 55 58.3137 55 55V45.5V41V34.5C55 33.6716 54.3284 33 53.5 33C52.6716 33 52 33.6716 52 34.5V41V45.5V55C52 56.6569 50.6569 58 49 58H29C27.3431 58 26 56.6569 26 55V45.5V41V34.5C26 33.6716 25.3284 33 24.5 33ZM31.5 37C30.6716 37 30 37.6716 30 38.5V52.5C30 53.3284 30.6716 54 31.5 54C32.3284 54 33 53.3284 33 52.5V38.5C33 37.6716 32.3284 37 31.5 37ZM38 38.5C38 37.6716 38.6716 37 39.5 37C40.3284 37 41 37.6716 41 38.5V52.5C41 53.3284 40.3284 54 39.5 54C38.6716 54 38 53.3284 38 52.5V38.5ZM46.5 37C45.6716 37 45 37.6716 45 38.5V52.5C45 53.3284 45.6716 54 46.5 54C47.3284 54 48 53.3284 48 52.5V38.5C48 37.6716 47.3284 37 46.5 37Z" fill="white"/>
</svg>
