<svg width="78" height="78" viewBox="0 0 78 78" fill="none" xmlns="http://www.w3.org/2000/svg">
<path fill-rule="evenodd" clip-rule="evenodd" d="M0 0.0948181L76.9434 0L77.0382 76.9434L0.0948029 77.0382L0 0.0948181ZM13.5 60C12.6716 60 12 59.3284 12 58.5C12 57.6716 12.6716 57 13.5 57H17.0354C17.0316 56.9208 17.0309 56.8408 17.0333 56.7601L17.5233 40.6865C17.5464 39.9274 17.8566 39.2054 18.3911 38.666L42.7079 14.1308C43.8742 12.954 45.7737 12.9455 46.9505 14.1118L62.5291 29.5517C63.7059 30.718 63.7144 32.6176 62.5481 33.7943L39.5491 57H58.5C59.3284 57 60 57.6716 60 58.5C60 59.3284 59.3284 60 58.5 60H13.5ZM54.11 33.879C54.8946 34.6565 56.1609 34.6508 56.9384 33.8663L57.6424 33.1561C58.4199 32.3715 58.4143 31.1052 57.6297 30.3277L46.2655 19.0647C45.481 18.2871 44.2147 18.2928 43.4371 19.0773L42.7332 19.7876C41.9557 20.5721 41.9613 21.8384 42.7458 22.616L54.11 33.879ZM34.2429 55.4519C35.0608 55.4659 35.849 55.1452 36.4249 54.5642L51.2959 39.5596C52.4665 38.3784 52.453 36.4704 51.2658 35.306L41.2708 25.5027C40.0922 24.3468 38.2013 24.3602 37.0393 25.5326L22.2196 40.4855C21.6438 41.0665 21.3302 41.8575 21.3514 42.6753L21.6036 52.365C21.6454 53.971 22.945 55.2591 24.5513 55.2865L34.2429 55.4519ZM26.5616 40.3662C26.1728 40.7585 26.1757 41.3916 26.5679 41.7804C26.9602 42.1692 27.5934 42.1664 27.9821 41.7741L37.8372 31.8304C38.226 31.4382 38.2232 30.805 37.8309 30.4162C37.4387 30.0274 36.8055 30.0303 36.4167 30.4225L26.5616 40.3662ZM30.8295 46.004C30.4372 45.6153 30.4344 44.9821 30.8232 44.5898L40.6783 34.6462C41.0671 34.2539 41.7002 34.2511 42.0925 34.6398C42.4848 35.0286 42.4876 35.6618 42.0988 36.054L32.2437 45.9977C31.8549 46.39 31.2218 46.3928 30.8295 46.004ZM35.0847 48.8135C34.696 49.2057 34.6988 49.8389 35.0911 50.2277C35.4833 50.6164 36.1165 50.6136 36.5053 50.2213L46.3604 40.2777C46.7492 39.8854 46.7463 39.2523 46.3541 38.8635C45.9618 38.4747 45.3286 38.4775 44.9399 38.8698L35.0847 48.8135Z" fill="white"/>
</svg>
